# Alias OBJ Model File
# Exported from SketchUp, (c) 2000-2012 Trimble Navigation Limited
# File units = millimeters

mtllib billy.mtl

g Mesh1 Component_1_1 Model

usemtl FrontColor
v 20 50 -242.2
vt -0.787402 1.9685
vn 0 0 -1
v 780 50 -242.2
vt -30.7087 1.9685
v 780 0 -242.2
vt -30.7087 0
v 20 0 -242.2
vt -0.787402 0
f 1/1/1 2/2/1 3/3/1 4/4/1 

v 20 50 -280
vt -0.787402 11.0236
vn -5.93677e-17 -1 -0
v 780 50 -280
vt -30.7087 11.0236
vt -30.7087 9.53543
vt -0.787402 9.53543
f 5/5/2 6/6/2 2/7/2 1/8/2 

v 20 74.2 -280
vt -0.787402 2.92126
v 780 74.2 -280
vt -30.7087 2.92126
f 5/1/1 7/9/1 8/10/1 6/2/1 

v 800 0 -280
vt -31.4961 0
v 780 0 -280
v 780 424.2 -280
vt -30.7087 16.7008
v 780 468.15 -280
vt -30.7087 18.4311
v 780 818.15 -280
vt -30.7087 32.2106
v 780 862.1 -280
vt -30.7087 33.9409
v 780 1212.1 -280
vt -30.7087 47.7205
v 780 1256.05 -280
vt -30.7087 49.4508
v 780 1606.05 -280
vt -30.7087 63.2303
v 780 1650 -280
vt -30.7087 64.9606
v 780 2000 -280
vt -30.7087 78.7402
v 20 2000 -280
vt -0.787402 78.7402
v 20 1650 -280
vt -0.787402 64.9606
v 20 1606.05 -280
vt -0.787402 63.2303
v 20 1256.05 -280
vt -0.787402 49.4508
v 20 1212.1 -280
vt -0.787402 47.7205
v 20 862.1 -280
vt -0.787402 33.9409
v 20 818.15 -280
vt -0.787402 32.2106
v 20 468.15 -280
vt -0.787402 18.4311
v 20 424.2 -280
vt -0.787402 16.7008
v 20 0 -280
v 0 0 -280
vt 0 0
v 0 2020 -280
vt 0 79.5276
v 800 2020 -280
vt -31.4961 79.5276
f 9/11/1 10/3/1 6/2/1 8/10/1 11/12/1 12/13/1 13/14/1 14/15/1 15/16/1 16/17/1 17/18/1 18/19/1 19/20/1 20/21/1 21/22/1 22/23/1 23/24/1 24/25/1 25/26/1 26/27/1 27/28/1 28/29/1 7/9/1 5/1/1 29/4/1 30/30/1 31/31/1 32/32/1 

vn 0 -1 -0
vt -31.4961 11.0236
v 800 0 -0
v 0 0 -0
vt 0 11.0236
f 10/6/3 9/33/3 33/11/3 34/30/3 30/34/3 29/5/3 4/8/3 3/7/3 

vt 11.0236 0
vn 1 0 -0
vt 11.0236 79.5276
v 800 2020 -0
f 9/35/4 32/36/4 35/31/4 33/30/4 

vt 31.4961 0
vn 0 1 -0
vt 31.4961 11.0236
v 0 2020 -0
f 35/37/5 32/38/5 31/34/5 36/30/5 

vt -11.0236 0
vn -1 0 -0
vt -11.0236 79.5276
f 30/39/6 34/30/6 36/31/6 31/40/6 

vn 0 0 1
vt 31.4961 79.5276
f 34/30/7 33/37/7 35/41/7 36/31/7 

vt 11.0236 1.9685
vt 9.53543 1.9685
vt 9.53543 0
f 29/35/4 5/42/4 1/43/4 4/44/4 

vt -11.0236 1.9685
vt -9.53543 0
vt -9.53543 1.9685
f 6/45/6 10/39/6 3/46/6 2/47/6 

vt -11.0236 16.7008
vt -11.0236 2.92126
v 780 74.2 -2
vt -0.0787402 2.92126
v 780 424.2 -2
vt -0.0787402 16.7008
f 11/48/6 8/49/6 37/50/6 38/51/6 

vt 30.7087 11.0236
vt 0.787402 11.0236
v 20 74.2 -2
vt 0.787402 0.0787402
vt 30.7087 0.0787402
f 8/52/5 7/53/5 39/54/5 37/55/5 

vt 11.0236 2.92126
vn 1 -9.66846e-17 -0
vt 11.0236 16.7008
v 20 424.2 -2
vt 0.0787402 16.7008
vt 0.0787402 2.92126
f 7/56/8 28/57/8 40/58/8 39/59/8 

vt -30.7087 0.0787402
vt -0.787402 0.0787402
f 28/5/3 11/6/3 38/60/3 40/61/3 

f 12/13/1 11/12/1 28/29/1 27/28/1 

v 20 468.15 -2
v 780 468.15 -2
f 12/52/5 27/53/5 41/54/5 42/55/5 

vt 11.0236 18.4311
vt 11.0236 32.2106
v 20 818.15 -2
vt 0.0787402 32.2106
vt 0.0787402 18.4311
f 27/62/8 26/63/8 43/64/8 41/65/8 

v 780 818.15 -2
f 26/5/3 13/6/3 44/60/3 43/61/3 

f 14/15/1 13/14/1 26/27/1 25/26/1 

v 20 862.1 -2
v 780 862.1 -2
f 14/52/5 25/53/5 45/54/5 46/55/5 

vt 11.0236 33.9409
vt 11.0236 47.7205
v 20 1212.1 -2
vt 0.0787402 47.7205
vt 0.0787402 33.9409
f 25/66/8 24/67/8 47/68/8 45/69/8 

v 780 1212.1 -2
f 24/5/3 15/6/3 48/60/3 47/61/3 

f 16/17/1 15/16/1 24/25/1 23/24/1 

v 20 1256.05 -2
v 780 1256.05 -2
f 16/52/5 23/53/5 49/54/5 50/55/5 

vt 11.0236 49.4508
vt 11.0236 63.2303
v 20 1606.05 -2
vt 0.0787402 63.2303
vt 0.0787402 49.4508
f 23/70/8 22/71/8 51/72/8 49/73/8 

v 780 1606.05 -2
f 22/5/3 17/6/3 52/60/3 51/61/3 

f 18/19/1 17/18/1 22/23/1 21/22/1 

v 20 1650 -2
v 780 1650 -2
f 18/52/5 21/53/5 53/54/5 54/55/5 

vt 11.0236 64.9606
vt 11.0236 78.7402
v 20 2000 -2
vt 0.0787402 78.7402
vt 0.0787402 64.9606
f 21/74/8 20/75/8 55/76/8 53/77/8 

v 780 2000 -2
f 20/5/3 19/6/3 56/60/3 55/61/3 

vt -11.0236 78.7402
vt -11.0236 64.9606
vt -0.0787402 64.9606
vt -0.0787402 78.7402
f 19/78/6 18/79/6 54/80/6 56/81/6 

f 56/20/1 54/19/1 53/22/1 55/21/1 

vt -11.0236 63.2303
vt -11.0236 49.4508
vt -0.0787402 49.4508
vt -0.0787402 63.2303
f 17/82/6 16/83/6 50/84/6 52/85/6 

f 52/18/1 50/17/1 49/24/1 51/23/1 

vt -11.0236 47.7205
vt -11.0236 33.9409
vt -0.0787402 33.9409
vt -0.0787402 47.7205
f 15/86/6 14/87/6 46/88/6 48/89/6 

f 48/16/1 46/15/1 45/26/1 47/25/1 

vt -11.0236 32.2106
vt -11.0236 18.4311
vt -0.0787402 18.4311
vt -0.0787402 32.2106
f 13/90/6 12/91/6 42/92/6 44/93/6 

f 44/14/1 42/13/1 41/28/1 43/27/1 

f 38/12/1 37/10/1 39/9/1 40/29/1 

